<svg width="24" height="21" viewBox="0 0 24 21" fill="none" xmlns="http://www.w3.org/2000/svg">
<path d="M4.83514 20.5653C3.75867 20.5653 2.74717 20.1561 1.98642 19.4142C0.415883 17.882 0.415883 15.389 1.98642 13.857L14.4403 1.70852C15.4436 0.728807 16.779 0.189941 18.1988 0.189941C19.6188 0.189941 20.9541 0.728807 21.9575 1.70852C22.9618 2.68796 23.5149 3.98979 23.5149 5.37463C23.5149 6.75975 22.9624 8.06153 21.9583 9.04039L12.1544 18.6025C11.8601 18.8895 11.3834 18.8895 11.0892 18.6025C10.7949 18.3155 10.7949 17.8505 11.0892 17.5634L20.8929 8.00121C21.6125 7.29942 22.0082 6.36651 22.0082 5.37463C22.0082 4.38294 21.6116 3.44944 20.8922 2.74756C20.1726 2.04577 19.2162 1.65956 18.1988 1.65956C17.1815 1.65956 16.2251 2.04577 15.5055 2.74756L3.05176 14.8961C2.06894 15.8556 2.06894 17.4158 3.05176 18.375C4.00512 19.3037 5.66497 19.3037 6.61829 18.375L14.9808 10.2173C15.2082 9.99546 15.3385 9.68844 15.3385 9.37547C15.3385 9.05813 15.2113 8.759 14.9802 8.53364C14.505 8.07009 13.7303 8.06869 13.255 8.53364L7.5438 14.1052C7.24964 14.3924 6.77275 14.3924 6.4786 14.1052C6.18425 13.8182 6.18425 13.3531 6.4786 13.0662L12.1897 7.49465C13.252 6.45845 14.9817 6.45845 16.0454 7.49465C16.5612 7.99761 16.8451 8.6658 16.8451 9.37552C16.8451 10.0758 16.5538 10.7612 16.0462 11.2563L7.68368 19.4142C6.92293 20.1561 5.91138 20.5653 4.83514 20.5653Z" fill="#A3A3A3"/>
</svg>
