<svg width="100" height="100" viewBox="0 0 100 100" fill="none" xmlns="http://www.w3.org/2000/svg">
<circle cx="50" cy="50" r="47.5" stroke="#DADADA" stroke-width="5"/>
<path d="M54.9177 44.538L54.9185 44.5383L54.9387 44.5481L54.9524 44.5547L54.9177 44.538ZM54.9177 44.538C54.8848 44.5226 54.8506 44.5072 54.8185 44.4928C54.8055 44.487 54.7927 44.4812 54.7806 44.4757L54.6931 44.6692M54.9177 44.538L54.6931 44.6692M54.6931 44.6692L54.7806 44.4757C54.7128 44.4451 54.6444 44.4148 54.5756 44.3852L54.5749 44.3849M54.6931 44.6692L54.5749 44.3849M54.5749 44.3849C54.5438 44.3716 54.5114 44.3578 54.4788 44.3441M54.5749 44.3849L54.4788 44.3441M45.8356 44.2177L45.8356 44.2177C46.8903 43.8113 48.0148 43.555 49.1848 43.4731M45.8356 44.2177L49.5711 43.4524C49.563 43.4528 49.5551 43.4531 49.5477 43.4534C49.4537 43.4571 49.3597 43.4618 49.2659 43.4677M45.8356 44.2177L45.8325 44.2189M45.8356 44.2177L45.8325 44.2189M49.1848 43.4731L49.2022 43.7225L49.1843 43.4731C49.1844 43.4731 49.1846 43.4731 49.1848 43.4731ZM49.1848 43.4731C49.2121 43.4712 49.2393 43.4694 49.2653 43.4678L49.2658 43.4677M49.2658 43.4677L49.2814 43.7137L49.2659 43.4677M49.2658 43.4677C49.2658 43.4677 49.2658 43.4677 49.2659 43.4677M49.2658 43.4677L49.2659 43.4677M45.8325 44.2189L45.8323 44.219L45.8323 44.219M45.8325 44.2189L45.8323 44.219M45.8323 44.219L45.8289 44.2203M45.8323 44.219L45.8289 44.2203M45.8289 44.2203C45.7257 44.2602 45.6235 44.3014 45.522 44.3441M45.8289 44.2203L45.522 44.3441M45.6244 47.3379L45.624 47.3382C45.5932 47.3555 45.5635 47.3729 45.5316 47.3916C45.519 47.399 45.5061 47.4066 45.4926 47.4144L45.3667 47.1986L45.4932 47.4141C42.6838 49.0635 40.7777 52.2054 40.7777 55.8071C40.7777 61.123 44.9247 65.4303 50.0001 65.4303C55.0754 65.4303 59.2224 61.123 59.2226 55.8071C59.2226 52.2056 57.3167 49.0637 54.5076 47.4143C54.4963 47.4078 54.4854 47.4014 54.4748 47.3951C54.4407 47.3751 54.409 47.3565 54.3764 47.3382L54.3756 47.3377C54.3284 47.311 54.2804 47.2848 54.231 47.2581C54.1445 47.2115 54.0591 47.1665 53.9734 47.1238L53.9729 47.1235C53.9543 47.1142 53.9363 47.1055 53.9165 47.096C53.9083 47.092 53.8997 47.0879 53.8907 47.0835L53.8907 47.0835C52.9301 46.6171 51.896 46.3242 50.8335 46.2236L45.6244 47.3379ZM45.6244 47.3379C45.6718 47.3112 45.7201 47.2848 45.7697 47.2579C45.8558 47.2114 45.9413 47.1665 46.027 47.1238L46.0274 47.1235C46.046 47.1142 46.064 47.1055 46.0839 47.0959C46.0921 47.092 46.1006 47.0879 46.1097 47.0835L46.1097 47.0835C47.0704 46.6171 48.1045 46.3242 49.1671 46.2235L49.1672 46.2235L49.1952 46.2209L45.6244 47.3379ZM55.5327 44.8467V39.3065C55.5327 36.6697 53.6058 34.5698 51.2911 34.5698H48.7093C46.3945 34.5698 44.4677 36.6696 44.4677 39.3065V44.8466C44.6587 44.7439 44.8523 44.6467 45.048 44.5548L55.5327 44.8467ZM55.5327 44.8467C55.3417 44.7439 55.1482 44.6468 54.9526 44.5548L55.5327 44.8467ZM54.4788 44.3441C54.3776 44.3017 54.2758 44.2606 54.1732 44.2209C54.1712 44.2201 54.1677 44.2187 54.1638 44.2172M54.4788 44.3441L54.1638 44.2172M54.1638 44.2172C54.1642 44.2174 54.1646 44.2175 54.165 44.2177L54.0751 44.451L54.1616 44.2164C54.1624 44.2167 54.1631 44.217 54.1638 44.2172ZM54.1638 44.2172C53.1095 43.8111 51.9854 43.5549 50.8158 43.4731M54.1638 44.2172L50.8163 43.4731C50.8162 43.4731 50.816 43.4731 50.8158 43.4731M50.8158 43.4731C50.7885 43.4712 50.7613 43.4694 50.7354 43.4678L50.7348 43.4677M50.8158 43.4731L50.7348 43.4677M50.7348 43.4677L50.7347 43.4677C50.7348 43.4677 50.7348 43.4677 50.7348 43.4677ZM45.522 44.3441C45.4895 44.3576 45.4574 44.3713 45.4251 44.3851L45.522 44.3441ZM50.8191 46.2222L50.8332 46.2235L49.1956 46.2209C49.321 46.2094 49.447 46.2006 49.5732 46.1945C49.5734 46.1945 49.5736 46.1945 49.5738 46.1945L49.5937 46.1937L49.6182 46.1927C49.746 46.1871 49.8733 46.1838 50.0002 46.1838C50.127 46.1838 50.2543 46.1871 50.3822 46.1927L50.4067 46.1937L50.4266 46.1945C50.4268 46.1945 50.427 46.1945 50.4273 46.1945C50.5535 46.2006 50.6793 46.2094 50.8048 46.2209L50.8052 46.2209L50.8191 46.2222ZM58.2681 46.884V39.3064C58.2681 35.2007 55.1549 31.8297 51.291 31.8297H48.7091C44.8451 31.8297 41.732 35.2007 41.732 39.3064V46.8839C39.459 49.1361 38.0421 52.3042 38.0421 55.807C38.0422 62.6163 43.3983 68.1704 50.0001 68.1704C56.6019 68.1704 61.958 62.6163 61.958 55.8071C61.958 52.3043 60.5412 49.1362 58.2681 46.884ZM50.3594 43.4498C50.2409 43.4461 50.1212 43.4437 50.0003 43.4437C49.8794 43.4437 49.7597 43.4461 49.6412 43.4498H50.3594Z" fill="#DADADA" stroke="#DADADA" stroke-width="0.5"/>
<path d="M53.1062 54.4328C53.1062 52.6473 51.7128 51.1947 49.9999 51.1947C48.2872 51.1947 46.8938 52.6472 46.8938 54.4328C46.8938 55.3454 47.2572 56.1948 47.8774 56.7979L47.1326 60.2791C47.1158 60.3575 47.1074 60.4375 47.1074 60.5179C47.1074 61.4689 48.001 62.1859 49.1861 62.1859H50.8144C51.9993 62.1859 52.8927 61.4689 52.8927 60.5179C52.8927 60.4376 52.8843 60.3575 52.8674 60.2791L52.1224 56.7979C52.7427 56.1947 53.1062 55.3454 53.1062 54.4328ZM49.3515 59.9914L49.9999 56.9608L50.6485 59.9914H49.3515V59.9914ZM50.459 55.36C50.2544 55.4708 50.0965 55.6442 49.9999 55.8488C49.9032 55.6442 49.7454 55.4708 49.5408 55.36C49.2069 55.1793 48.9994 54.8239 48.9994 54.4328C48.9994 53.8573 49.4482 53.389 49.9999 53.389C50.5517 53.389 51.0006 53.8573 51.0006 54.4328C51.0006 54.8238 50.7931 55.179 50.459 55.36Z" fill="#DADADA"/>
<path d="M69.0929 30.9146C63.9911 25.8153 57.2152 23 49.9981 23C42.781 23 36.005 25.8153 30.9033 30.9146C21.0618 40.7513 20.3491 56.4673 29.116 67.1181C27.9056 69.5942 26.4802 71.245 24.8626 72.0364C23.8785 72.5226 23.3242 73.5854 23.4825 74.6708C23.6522 75.7676 24.4893 76.6156 25.5866 76.7852C26.1861 76.8756 26.8309 76.9322 27.4983 76.9322C30.8128 76.9322 34.2969 75.7902 37.2041 73.7889C41.1181 75.892 45.5185 77 49.9981 77C57.2152 77 63.9911 74.196 69.0929 69.0967C74.1946 63.9975 77 57.2136 77 50.0113C77 42.809 74.1946 36.0138 69.0929 30.9146ZM66.9322 66.9259C62.4074 71.4485 56.3894 73.9359 49.9981 73.9359C45.7221 73.9359 41.5253 72.794 37.8715 70.6457C37.634 70.51 37.3625 70.4309 37.1023 70.4309C36.7742 70.4309 36.4349 70.544 36.1634 70.7475C32.7019 73.4271 29.2178 73.8229 27.6906 73.8568C29.5119 72.5 31.039 70.397 32.3173 67.4686C32.5548 66.9259 32.453 66.2927 32.0571 65.8404C23.6862 56.3882 24.1273 41.9837 33.0639 33.0515C37.5887 28.5289 43.6067 26.0415 49.9981 26.0415C56.3894 26.0415 62.4074 28.5289 66.9322 33.0515C76.276 42.402 76.276 57.598 66.9322 66.9259Z" fill="#DADADA"/>
</svg>
