<svg width="100" height="100" viewBox="0 0 100 100" fill="none" xmlns="http://www.w3.org/2000/svg">
<circle cx="50" cy="50" r="47.5" stroke="#DADADA" stroke-width="5"/>
<path d="M58.2838 40.6394L45.2681 53.7054L40.7162 49.0749C39.8627 48.2134 38.4936 48.2134 37.6401 49.0749C36.7866 49.9364 36.7866 51.3183 37.6401 52.1798L43.7212 58.3539C44.1479 58.7846 44.6991 59 45.2681 59C45.8193 59 46.3706 58.7846 46.7973 58.3539L61.3599 43.7444C62.2134 42.8829 62.2134 41.5009 61.3599 40.6394C60.5242 39.7959 59.1373 39.7779 58.2838 40.6394Z" fill="#DADADA"/>
<path d="M75 53.5976V31.4624C75 30.8717 74.6369 30.3291 74.0923 30.1001L50.0688 20.1175C49.7057 19.9608 49.2943 19.9608 48.9312 20.1175L24.9077 30.1001C24.351 30.3291 24 30.8717 24 31.4624V53.5976C24 67.6069 35.4369 79 49.5 79C63.5631 79 75 67.5948 75 53.5976ZM49.5 76.0462C37.0707 76.0462 26.9651 65.9793 26.9651 53.5976V32.451L49.5 23.0834L72.0349 32.451V53.5976C72.0349 65.9673 61.9293 76.0462 49.5 76.0462Z" fill="#DADADA"/>
</svg>
