<svg width="100" height="100" viewBox="0 0 100 100" fill="none" xmlns="http://www.w3.org/2000/svg">
<circle cx="50" cy="50" r="47.5" stroke="#DADADA" stroke-width="5"/>
<path d="M27.1447 62L20.0527 38.528H25.6687L28.4767 49.472C28.8367 50.768 29.1487 52.028 29.4127 53.252C29.7007 54.452 30.0247 55.7 30.3847 56.996H30.5287C30.8647 55.7 31.1767 54.452 31.4647 53.252C31.7527 52.028 32.0647 50.768 32.4007 49.472L35.1727 38.528H40.5727L33.5167 62H27.1447ZM43.0806 62V38.528H51.1446C52.4406 38.528 53.6526 38.66 54.7806 38.924C55.9086 39.164 56.8926 39.584 57.7326 40.184C58.5726 40.76 59.2326 41.54 59.7126 42.524C60.2166 43.484 60.4686 44.672 60.4686 46.088C60.4686 47.456 60.2166 48.644 59.7126 49.652C59.2326 50.66 58.5726 51.488 57.7326 52.136C56.8926 52.784 55.9206 53.264 54.8166 53.576C53.7126 53.888 52.5366 54.044 51.2886 54.044H48.3726V62H43.0806ZM48.3726 49.832H50.9646C53.8446 49.832 55.2846 48.584 55.2846 46.088C55.2846 44.864 54.9006 44 54.1326 43.496C53.3646 42.992 52.2606 42.74 50.8206 42.74H48.3726V49.832ZM64.5259 62V38.528H69.9619L76.0819 50.192L78.3859 55.376H78.5299C78.4099 54.128 78.2659 52.736 78.0979 51.2C77.9539 49.664 77.8819 48.2 77.8819 46.808V38.528H82.9219V62H77.4859L71.3659 50.3L69.0619 45.188H68.9179C69.0379 46.484 69.1699 47.876 69.3139 49.364C69.4819 50.852 69.5659 52.292 69.5659 53.684V62H64.5259Z" fill="#DADADA"/>
</svg>
